<svg width="39" height="39" viewBox="0 0 39 39" fill="none" xmlns="http://www.w3.org/2000/svg">
<path d="M20.9792 28.3987C21.0968 28.5136 21.2359 28.6042 21.3886 28.6653C21.5413 28.7265 21.7045 28.7569 21.8689 28.755C22.0333 28.7531 22.1958 28.7188 22.347 28.6541C22.4981 28.5893 22.6351 28.4955 22.75 28.3778C22.8649 28.2602 22.9555 28.1211 23.0167 27.9684C23.0778 27.8158 23.1083 27.6525 23.1063 27.4881C23.1044 27.3237 23.0701 27.1612 23.0054 27.01C22.9407 26.8589 22.8468 26.7219 22.7292 26.607L15.9792 19.9612L22.7708 13.2945C22.9286 13.1908 23.0608 13.0527 23.1576 12.8905C23.2543 12.7284 23.3131 12.5464 23.3295 12.3583C23.3458 12.1702 23.3194 11.9809 23.2521 11.8044C23.1848 11.628 23.0784 11.4692 22.9409 11.3397C22.8034 11.2103 22.6384 11.1138 22.4582 11.0573C22.278 11.0008 22.0874 10.9858 21.9006 11.0135C21.7139 11.0413 21.5358 11.1109 21.3798 11.2173C21.2238 11.3237 21.094 11.4641 21 11.6278L13.3542 19.2737C13.1664 19.4596 13.0424 19.7003 13 19.9612C13.0012 20.1246 13.035 20.2862 13.0994 20.4364C13.1637 20.5867 13.2575 20.7226 13.375 20.8362L20.9792 28.3987Z" fill="white"/>
</svg>
