<svg width="39" height="39" viewBox="0 0 39 39" fill="none" xmlns="http://www.w3.org/2000/svg">
<path d="M18.0208 28.3987C17.9032 28.5136 17.7641 28.6042 17.6114 28.6653C17.4587 28.7265 17.2955 28.7569 17.1311 28.755C16.9667 28.7531 16.8042 28.7188 16.653 28.6541C16.5019 28.5893 16.3649 28.4955 16.25 28.3778C16.1351 28.2602 16.0445 28.1211 15.9833 27.9684C15.9222 27.8158 15.8917 27.6525 15.8937 27.4881C15.8956 27.3237 15.9299 27.1612 15.9946 27.01C16.0593 26.8589 16.1532 26.7219 16.2708 26.607L23.0208 19.9612L16.2292 13.2945C16.0714 13.1908 15.9392 13.0527 15.8424 12.8905C15.7457 12.7284 15.6869 12.5464 15.6705 12.3583C15.6542 12.1702 15.6806 11.9809 15.7479 11.8044C15.8152 11.628 15.9216 11.4692 16.0591 11.3397C16.1966 11.2103 16.3616 11.1138 16.5418 11.0573C16.722 11.0008 16.9126 10.9858 17.0994 11.0135C17.2861 11.0413 17.4642 11.1109 17.6202 11.2173C17.7762 11.3237 17.906 11.4641 18 11.6278L25.6458 19.2737C25.8336 19.4596 25.9576 19.7003 26 19.9612C25.9988 20.1246 25.965 20.2862 25.9006 20.4364C25.8363 20.5867 25.7425 20.7226 25.625 20.8362L18.0208 28.3987Z" fill="white"/>
</svg>
