<svg width="65" height="50" viewBox="0 0 65 50" fill="none" xmlns="http://www.w3.org/2000/svg">
<path d="M34.0586 38C34.0586 31.0667 36.6586 24.2 41.8586 17.4C47.0586 10.4667 54.2586 4.73332 63.4586 0.199994L64.4586 2.99999C58.1919 6.73333 53.1919 10.9333 49.4586 15.6C45.7253 20.1333 43.6586 24.6667 43.2586 29.2C44.8586 27.7333 46.5253 26.5333 48.2586 25.6C50.1253 24.6667 51.9253 24.2 53.6586 24.2C55.5253 24.2 56.9253 24.8667 57.8586 26.2C58.7919 27.4 59.2586 29.0667 59.2586 31.2C59.2586 34 58.4586 36.8667 56.8586 39.8C55.2586 42.6 53.1919 45 50.6586 47C48.2586 48.8667 45.6586 49.8 42.8586 49.8C39.7919 49.8 37.5253 48.7333 36.0586 46.6C34.7253 44.4667 34.0586 41.6 34.0586 38ZM0.858595 38C0.858595 31.0667 3.45859 24.2 8.65859 17.4C13.8586 10.4667 21.0586 4.73332 30.2586 0.199994L31.2586 2.99999C24.9919 6.73333 19.9919 10.9333 16.2586 15.6C12.5253 20.1333 10.4586 24.6667 10.0586 29.2C11.6586 27.7333 13.3253 26.5333 15.0586 25.6C16.9253 24.6667 18.7253 24.2 20.4586 24.2C22.3253 24.2 23.7253 24.8667 24.6586 26.2C25.5919 27.4 26.0586 29.0667 26.0586 31.2C26.0586 34 25.2586 36.8667 23.6586 39.8C22.0586 42.6 19.9919 45 17.4586 47C15.0586 48.8667 12.4586 49.8 9.6586 49.8C6.59193 49.8 4.32526 48.7333 2.85859 46.6C1.52526 44.4667 0.858595 41.6 0.858595 38Z" fill="white"/>
</svg>
