<svg width="65" height="50" viewBox="0 0 65 50" fill="none" xmlns="http://www.w3.org/2000/svg">
<path d="M30.9633 12.2C30.9633 19.1333 28.3633 26.0667 23.1633 33C17.9633 39.8 10.7633 45.4667 1.56328 50L0.563283 47.2C6.82995 43.3333 11.83 39.1333 15.5633 34.6C19.2966 30.0667 21.3633 25.5333 21.7633 21C20.1633 22.3333 18.4966 23.5333 16.7633 24.6C15.0299 25.5333 13.23 26 11.3633 26C9.62995 26 8.22995 25.4 7.16328 24.2C6.22995 22.8667 5.76328 21.1333 5.76328 19C5.76328 16.0667 6.56328 13.2 8.16328 10.4C9.76328 7.59999 11.8299 5.26666 14.3633 3.4C16.8966 1.39999 19.4966 0.399988 22.1633 0.399988C25.2299 0.399988 27.43 1.46666 28.7633 3.59999C30.2299 5.73332 30.9633 8.59999 30.9633 12.2ZM64.1633 12.2C64.1633 19.1333 61.5633 26.0667 56.3633 33C51.1633 39.8 43.9633 45.4667 34.7633 50L33.7633 47.2C40.03 43.3333 45.03 39.1333 48.7633 34.6C52.4966 30.0667 54.5633 25.5333 54.9633 21C53.3633 22.3333 51.6966 23.5333 49.9633 24.6C48.23 25.5333 46.43 26 44.5633 26C42.83 26 41.43 25.4 40.3633 24.2C39.43 22.8667 38.9633 21.1333 38.9633 19C38.9633 16.0667 39.7633 13.2 41.3633 10.4C42.9633 7.59999 45.0299 5.26666 47.5633 3.4C50.0966 1.39999 52.6966 0.399988 55.3633 0.399988C58.43 0.399988 60.63 1.46666 61.9633 3.59999C63.43 5.73332 64.1633 8.59999 64.1633 12.2Z" fill="white"/>
</svg>
