<svg width="35" height="35" viewBox="0 0 35 35" fill="none" xmlns="http://www.w3.org/2000/svg">
<g clip-path="url(#clip0_214_35)">
<path d="M35 17.5C35 26.235 28.6002 33.4749 20.2344 34.7874V22.5586H24.312L25.0879 17.5H20.2344V14.2174C20.2344 12.8331 20.9125 11.4844 23.0863 11.4844H25.293V7.17773C25.293 7.17773 23.29 6.83594 21.3753 6.83594C17.3783 6.83594 14.7656 9.25859 14.7656 13.6445V17.5H10.3223V22.5586H14.7656V34.7874C6.39981 33.4749 0 26.235 0 17.5C0 7.83535 7.83535 0 17.5 0C27.1646 0 35 7.83535 35 17.5Z" fill="white"/>
<path d="M24.312 22.5586L25.0879 17.5H20.2344V14.2173C20.2344 12.8334 20.9124 11.4844 23.0863 11.4844H25.293V7.17773C25.293 7.17773 23.2903 6.83594 21.3756 6.83594C17.3783 6.83594 14.7656 9.25859 14.7656 13.6445V17.5H10.3223V22.5586H14.7656V34.7873C15.6566 34.9271 16.5698 35 17.5 35C18.4302 35 19.3434 34.9271 20.2344 34.7873V22.5586H24.312Z" fill="#141414"/>
</g>
<defs>
<clipPath id="clip0_214_35">
<rect width="35" height="35" fill="white"/>
</clipPath>
</defs>
</svg>
