<svg width="35" height="35" viewBox="0 0 35 35" fill="none" xmlns="http://www.w3.org/2000/svg">
<circle cx="17.5" cy="17.5" r="17.5" fill="white"/>
<g clip-path="url(#clip0_214_39)">
<path d="M23.4062 7H12.4688C9.4612 7 7 9.46014 7 12.4688V23.4062C7 26.4138 9.4612 28.875 12.4688 28.875H23.4062C26.4138 28.875 28.875 26.4138 28.875 23.4062V12.4688C28.875 9.46014 26.4138 7 23.4062 7ZM17.9375 22.4946C15.4202 22.4946 13.3801 20.4537 13.3801 17.9375C13.3801 15.4202 15.4202 13.3801 17.9375 13.3801C20.4537 13.3801 22.4949 15.4202 22.4949 17.9375C22.4949 20.4537 20.4537 22.4946 17.9375 22.4946ZM23.8621 13.3801C23.1063 13.3801 22.4949 12.7679 22.4949 12.0129C22.4949 11.258 23.1063 10.6457 23.8621 10.6457C24.6179 10.6457 25.2293 11.258 25.2293 12.0129C25.2293 12.7679 24.6179 13.3801 23.8621 13.3801Z" fill="#141414"/>
</g>
<defs>
<clipPath id="clip0_214_39">
<rect width="21.875" height="21.875" fill="white" transform="translate(7 7)"/>
</clipPath>
</defs>
</svg>
