<svg width="77" height="37" viewBox="0 0 77 37" fill="none" xmlns="http://www.w3.org/2000/svg">
<path d="M0 36.2275C1.89744 36.1733 3.29341 35.4685 4.18791 34.1132C5.10952 32.7579 5.57033 30.4674 5.57033 27.2418V4.87912C5.57033 3.84908 5.48901 3.10366 5.32637 2.64286C5.16374 2.18205 4.85201 1.87033 4.39121 1.7077C3.95751 1.54506 3.25275 1.43663 2.27692 1.38242V0.569234C3.41538 0.650552 5.12308 0.691211 7.4 0.691211C9.62271 0.691211 11.3711 0.650552 12.6451 0.569234V1.38242C11.6692 1.43663 10.9509 1.54506 10.4901 1.7077C10.0564 1.87033 9.75824 2.18205 9.5956 2.64286C9.43297 3.10366 9.35165 3.84908 9.35165 4.87912V19.7604C9.35165 22.0645 9.31099 24.111 9.22967 25.9C9.14835 27.6619 8.95861 29.1527 8.66044 30.3725C8.17253 32.3513 7.1696 33.9505 5.65165 35.1703C4.16081 36.3901 2.27692 37 0 37V36.2275Z" fill="white"/>
<path d="M47.7817 1.38242C46.8059 1.43663 46.0876 1.54506 45.6268 1.7077C45.1931 1.87033 44.8949 2.18205 44.7323 2.64286C44.5696 3.10366 44.4883 3.84908 44.4883 4.87912V25.0462C44.4883 26.0762 44.5696 26.8216 44.7323 27.2824C44.8949 27.7432 45.1931 28.0549 45.6268 28.2176C46.0876 28.3802 46.8059 28.4886 47.7817 28.5429V29.356C46.5348 29.2747 44.8136 29.2341 42.618 29.2341C40.2868 29.2341 38.552 29.2747 37.4136 29.356V28.5429C38.3894 28.4886 39.0942 28.3802 39.5279 28.2176C39.9887 28.0549 40.3004 27.7432 40.463 27.2824C40.6257 26.8216 40.707 26.0762 40.707 25.0462V3.25275L30.9081 29.5593H30.2575L20.0114 3.17143V24.6396C20.0114 25.6967 20.0927 26.4828 20.2553 26.9978C20.4451 27.5128 20.7975 27.8923 21.3125 28.1363C21.8275 28.3531 22.6271 28.4886 23.7114 28.5429V29.356C22.7356 29.2747 21.3531 29.2341 19.5641 29.2341C17.9378 29.2341 16.6773 29.2747 15.7828 29.356V28.5429C16.7315 28.4886 17.4363 28.3531 17.8971 28.1363C18.3579 27.8923 18.6696 27.5128 18.8323 26.9978C18.9949 26.4557 19.0762 25.6696 19.0762 24.6396V4.87912C19.0762 3.84908 18.9949 3.10366 18.8323 2.64286C18.6696 2.18205 18.3579 1.87033 17.8971 1.7077C17.4634 1.54506 16.7586 1.43663 15.7828 1.38242V0.569234C16.6773 0.650552 17.9378 0.691211 19.5641 0.691211C20.9736 0.691211 22.1257 0.650552 23.0202 0.569234L31.9652 24.111L40.707 0.691211H42.618C44.8136 0.691211 46.5348 0.650552 47.7817 0.569234V1.38242Z" fill="white"/>
<path d="M64.4635 0C66.0627 0 67.3774 0.230404 68.4074 0.691211C69.4375 1.12491 70.5624 1.77546 71.7822 2.64286C72.1345 2.91392 72.4056 3.04945 72.5953 3.04945C73.1104 3.04945 73.4492 2.22271 73.6118 0.569234H74.547C74.4386 2.33114 74.3843 5.44835 74.3843 9.92088H73.4492C73.2052 8.48425 72.9477 7.30513 72.6767 6.38352C72.4056 5.4348 71.9855 4.60806 71.4162 3.9033C70.6301 2.92747 69.6001 2.15495 68.3261 1.58572C67.0792 1.01649 65.7646 0.731869 64.3821 0.731869C62.5931 0.731869 61.021 1.31465 59.6657 2.48022C58.3104 3.64579 57.2668 5.31282 56.5349 7.48132C55.803 9.62271 55.4371 12.13 55.4371 15.0033C55.4371 19.8824 56.2096 23.4604 57.7547 25.7374C59.3268 27.9872 61.7799 29.1121 65.114 29.1121C66.7404 29.1121 68.1499 28.6919 69.3426 27.8516C69.8305 27.5264 70.1422 27.2147 70.2778 26.9165C70.4404 26.5912 70.5217 26.1575 70.5217 25.6154V21.7121C70.5217 20.5736 70.4133 19.7469 70.1964 19.2319C69.9796 18.7169 69.6001 18.3645 69.058 18.1747C68.5158 17.985 67.6349 17.863 66.4151 17.8088V16.9956C67.8246 17.0769 69.7356 17.1176 72.1481 17.1176C73.9913 17.1176 75.4008 17.0769 76.3767 16.9956V17.8088C75.7532 17.863 75.2924 17.9714 74.9942 18.1341C74.7232 18.2967 74.5334 18.6084 74.425 19.0692C74.3437 19.53 74.303 20.2755 74.303 21.3055V29.356H73.4898C73.4627 28.8139 73.3543 28.2989 73.1646 27.811C72.9748 27.296 72.7173 27.0385 72.392 27.0385C72.2294 27.0385 72.0668 27.0791 71.9041 27.1604C71.7415 27.2418 71.4569 27.4315 71.0503 27.7297C70.1016 28.4615 69.1122 29.0037 68.0822 29.356C67.0792 29.7355 65.9543 29.9253 64.7074 29.9253C61.9155 29.9253 59.5166 29.356 57.5107 28.2176C55.532 27.052 54.014 25.385 52.9569 23.2165C51.8997 21.048 51.3712 18.4593 51.3712 15.4506C51.3712 12.3604 51.9268 9.64982 53.0382 7.31868C54.1767 4.96044 55.7353 3.15788 57.714 1.91099C59.6928 0.636998 61.9426 0 64.4635 0Z" fill="white"/>
</svg>
