<svg width="418" height="51" viewBox="0 0 418 51" fill="none" xmlns="http://www.w3.org/2000/svg">
<path d="M0.0446253 50.0729C2.27383 50.0092 3.91389 49.1812 4.9648 47.5889C6.04756 45.9967 6.58894 43.3057 6.58894 39.516V13.2432C6.58894 12.0331 6.4934 11.1573 6.30233 10.6159C6.11125 10.0746 5.74503 9.70834 5.20365 9.51726C4.69412 9.32619 3.86612 9.1988 2.71967 9.13511V8.17974C4.0572 8.27528 6.06349 8.32304 8.73853 8.32304C11.3499 8.32304 13.4039 8.27528 14.9007 8.17974V9.13511C13.7543 9.1988 12.9103 9.32619 12.369 9.51726C11.8594 9.70834 11.5091 10.0746 11.318 10.6159C11.127 11.1573 11.0314 12.0331 11.0314 13.2432V30.7266C11.0314 33.4335 10.9837 35.8378 10.8881 37.9397C10.7926 40.0096 10.5697 41.7612 10.2194 43.1942C9.64614 45.519 8.46785 47.3979 6.68448 48.8309C4.93296 50.264 2.71967 50.9805 0.0446253 50.9805V50.0729ZM33.3122 12.2878C36.242 12.2878 38.8056 12.877 41.003 14.0553C43.2322 15.2017 44.9518 16.9055 46.162 19.1665C47.3721 21.3958 47.9772 24.0708 47.9772 27.1917C47.9772 30.2489 47.3403 32.9558 46.0664 35.3124C44.8245 37.6371 43.0889 39.4523 40.8596 40.758C38.6304 42.0318 36.0987 42.6688 33.2644 42.6688C30.3346 42.6688 27.7551 42.0955 25.5259 40.9491C23.3285 39.7708 21.6248 38.067 20.4146 35.8378C19.2045 33.5768 18.5994 30.8858 18.5994 27.7649C18.5994 24.7077 19.2204 22.0167 20.4624 19.692C21.7362 17.3354 23.4878 15.5202 25.717 14.2464C27.9462 12.9407 30.4779 12.2878 33.3122 12.2878ZM33.1211 13.1477C31.1785 13.1477 29.4588 13.7687 27.9621 15.0107C26.4972 16.2208 25.3667 17.9246 24.5705 20.1219C23.7744 22.2874 23.3763 24.7714 23.3763 27.5738C23.3763 30.4081 23.8221 32.908 24.7138 35.0735C25.6055 37.239 26.8156 38.911 28.3442 40.0893C29.8728 41.2357 31.5766 41.8089 33.4555 41.8089C35.3981 41.8089 37.1018 41.2039 38.5667 39.9937C40.0635 38.7517 41.21 37.048 42.0061 34.8825C42.8022 32.6851 43.2003 30.1852 43.2003 27.3828C43.2003 24.5485 42.7545 22.0486 41.8628 19.8831C40.9711 17.7176 39.761 16.0616 38.2324 14.9151C36.7038 13.7368 35 13.1477 33.1211 13.1477ZM80.2647 39.9937C79.6597 40.8536 78.9591 41.5223 78.1629 42C77.3986 42.4458 76.4751 42.6688 75.3923 42.6688C72.7173 42.6688 71.0772 41.4586 70.4722 39.0383L68.9913 33.0672C68.5455 31.2839 67.8767 30.0897 66.985 29.4846C66.1252 28.8795 64.8354 28.577 63.1158 28.577H60.393V36.9365C60.393 38.1467 60.4885 39.0224 60.6796 39.5638C60.8706 40.1052 61.2209 40.4714 61.7305 40.6625C62.2719 40.8536 63.1158 40.9809 64.2622 41.0446V42C62.7973 41.9045 60.7751 41.8567 58.1956 41.8567C55.4568 41.8567 53.4187 41.9045 52.0812 42V41.0446C53.2276 40.9809 54.0556 40.8536 54.5652 40.6625C55.1065 40.4714 55.4728 40.1052 55.6638 39.5638C55.8549 39.0224 55.9505 38.1467 55.9505 36.9365V18.0201C55.9505 16.81 55.8549 15.9342 55.6638 15.3928C55.4728 14.8514 55.1065 14.4852 54.5652 14.2941C54.0556 14.1031 53.2276 13.9757 52.0812 13.912V12.9566C53.4187 13.0521 55.3613 13.0999 57.909 13.0999L62.7814 13.0521C63.3228 13.0203 63.9438 13.0044 64.6444 13.0044C68.2111 13.0044 70.9339 13.6731 72.8128 15.0107C74.7236 16.3482 75.6789 18.0838 75.6789 20.2175C75.6789 22.0645 74.9306 23.7523 73.4338 25.2809C71.9689 26.8095 69.5486 27.7808 66.173 28.1948C66.8099 28.2585 67.3513 28.3222 67.7971 28.3859C69.4849 28.6407 70.8225 29.1502 71.8097 29.9145C72.7969 30.6788 73.4975 31.9049 73.9115 33.5927L74.9624 37.9397C75.2172 39.0543 75.4879 39.8504 75.7745 40.3281C76.0929 40.7739 76.491 40.9969 76.9687 40.9969C77.7648 40.9969 78.6406 40.4555 79.596 39.3727L80.2647 39.9937ZM63.4501 13.912C62.5903 13.912 61.9375 14.0234 61.4916 14.2464C61.0776 14.4693 60.791 14.8674 60.6318 15.4406C60.4726 16.0138 60.393 16.8736 60.393 18.0201V27.6216H63.5935C66.3959 27.6216 68.3066 27.0325 69.3257 25.8542C70.3766 24.644 70.9021 22.9403 70.9021 20.7429C70.9021 18.45 70.3129 16.7463 69.1346 15.6317C67.9882 14.4852 66.0934 13.912 63.4501 13.912ZM94.9309 12.9566C99.8988 12.9566 103.625 14.1668 106.109 16.587C108.625 18.9755 109.882 22.4785 109.882 27.0962C109.882 30.0897 109.277 32.7169 108.067 34.978C106.857 37.2072 105.09 38.9428 102.765 40.1848C100.472 41.3949 97.7174 42 94.5009 42L91.7304 41.9522C89.947 41.8885 88.6413 41.8567 87.8133 41.8567C85.202 41.8567 83.2275 41.9045 81.89 42V41.0446C83.0364 40.9809 83.8644 40.8536 84.374 40.6625C84.9154 40.4714 85.2816 40.1052 85.4727 39.5638C85.6637 39.0224 85.7593 38.1467 85.7593 36.9365V18.0201C85.7593 16.81 85.6637 15.9342 85.4727 15.3928C85.2816 14.8514 84.9154 14.4852 84.374 14.2941C83.8644 14.1031 83.0364 13.9757 81.89 13.912V12.9566C83.0046 13.0521 84.5491 13.0999 86.5236 13.0999L90.5839 13.0521C92.7494 12.9885 94.1984 12.9566 94.9309 12.9566ZM93.7366 13.8164C92.7494 13.8164 92.001 13.9279 91.4915 14.1508C91.0138 14.3737 90.6794 14.7718 90.4884 15.345C90.2973 15.9183 90.2018 16.7781 90.2018 17.9246V37.0321C90.2018 38.1785 90.2973 39.0383 90.4884 39.6116C90.6794 40.1848 91.0138 40.5829 91.4915 40.8058C92.001 41.0287 92.7653 41.1402 93.7844 41.1402C96.6824 41.1402 98.9594 40.6306 100.615 39.6116C102.271 38.5607 103.434 37.0321 104.102 35.0258C104.771 33.0195 105.106 30.44 105.106 27.2872C105.106 22.6377 104.246 19.2302 102.526 17.0647C100.806 14.8992 97.8766 13.8164 93.7366 13.8164ZM126.259 13.912C125.112 13.9757 124.269 14.1031 123.727 14.2941C123.218 14.4852 122.867 14.8514 122.676 15.3928C122.485 15.9342 122.39 16.81 122.39 18.0201V36.9365C122.39 38.1467 122.485 39.0224 122.676 39.5638C122.867 40.1052 123.218 40.4714 123.727 40.6625C124.269 40.8536 125.112 40.9809 126.259 41.0446V42C124.794 41.9045 122.772 41.8567 120.192 41.8567C117.454 41.8567 115.415 41.9045 114.078 42V41.0446C115.224 40.9809 116.052 40.8536 116.562 40.6625C117.103 40.4714 117.469 40.1052 117.661 39.5638C117.852 39.0224 117.947 38.1467 117.947 36.9365V18.0201C117.947 16.81 117.852 15.9342 117.661 15.3928C117.469 14.8514 117.103 14.4852 116.562 14.2941C116.052 14.1031 115.224 13.9757 114.078 13.912V12.9566C115.415 13.0521 117.454 13.0999 120.192 13.0999C122.74 13.0999 124.762 13.0521 126.259 12.9566V13.912ZM179.755 9.13511C178.608 9.1988 177.764 9.32619 177.223 9.51726C176.713 9.70834 176.363 10.0746 176.172 10.6159C175.981 11.1573 175.885 12.0331 175.885 13.2432V36.9365C175.885 38.1467 175.981 39.0224 176.172 39.5638C176.363 40.1052 176.713 40.4714 177.223 40.6625C177.764 40.8536 178.608 40.9809 179.755 41.0446V42C178.29 41.9045 176.268 41.8567 173.688 41.8567C170.949 41.8567 168.911 41.9045 167.574 42V41.0446C168.72 40.9809 169.548 40.8536 170.058 40.6625C170.599 40.4714 170.965 40.1052 171.156 39.5638C171.347 39.0224 171.443 38.1467 171.443 36.9365V11.3325L159.931 42.2388H159.166L147.129 11.2369V36.4588C147.129 37.7008 147.224 38.6243 147.415 39.2294C147.638 39.8345 148.052 40.2803 148.657 40.5669C149.262 40.8217 150.202 40.9809 151.476 41.0446V42C150.329 41.9045 148.705 41.8567 146.603 41.8567C144.692 41.8567 143.212 41.9045 142.161 42V41.0446C143.275 40.9809 144.103 40.8217 144.645 40.5669C145.186 40.2803 145.552 39.8345 145.743 39.2294C145.934 38.5925 146.03 37.669 146.03 36.4588V13.2432C146.03 12.0331 145.934 11.1573 145.743 10.6159C145.552 10.0746 145.186 9.70834 144.645 9.51726C144.135 9.32619 143.307 9.1988 142.161 9.13511V8.17974C143.212 8.27528 144.692 8.32304 146.603 8.32304C148.259 8.32304 149.613 8.27528 150.664 8.17974L161.173 35.8378L171.443 8.32304H173.688C176.268 8.32304 178.29 8.27528 179.755 8.17974V9.13511ZM208.038 37.9874C208.898 39.9619 209.997 40.9809 211.334 41.0446V42C210.06 41.9045 208.357 41.8567 206.223 41.8567C203.484 41.8567 201.446 41.9045 200.109 42V41.0446C201.287 40.9809 202.147 40.8217 202.688 40.5669C203.261 40.3122 203.548 39.8823 203.548 39.2772C203.548 38.7676 203.325 38.0193 202.879 37.0321L200.443 31.5864H188.835L187.211 35.1691C186.67 36.4111 186.399 37.4301 186.399 38.2263C186.399 39.0543 186.686 39.7071 187.259 40.1848C187.864 40.6306 188.819 40.9172 190.125 41.0446V42C189.17 41.9045 187.721 41.8567 185.778 41.8567C183.835 41.8567 182.45 41.9045 181.622 42V41.0446C182.482 40.8217 183.214 40.344 183.82 39.6116C184.425 38.8473 184.998 37.8441 185.539 36.6021L196.096 12.7178H196.86L208.038 37.9874ZM200.061 30.631L194.663 18.4978L189.217 30.631H200.061ZM241.391 39.9937C240.786 40.8536 240.085 41.5223 239.289 42C238.525 42.4458 237.601 42.6688 236.518 42.6688C233.843 42.6688 232.203 41.4586 231.598 39.0383L230.117 33.0672C229.672 31.2839 229.003 30.0897 228.111 29.4846C227.251 28.8795 225.962 28.577 224.242 28.577H221.519V36.9365C221.519 38.1467 221.615 39.0224 221.806 39.5638C221.997 40.1052 222.347 40.4714 222.857 40.6625C223.398 40.8536 224.242 40.9809 225.388 41.0446V42C223.923 41.9045 221.901 41.8567 219.322 41.8567C216.583 41.8567 214.545 41.9045 213.207 42V41.0446C214.354 40.9809 215.182 40.8536 215.691 40.6625C216.233 40.4714 216.599 40.1052 216.79 39.5638C216.981 39.0224 217.077 38.1467 217.077 36.9365V18.0201C217.077 16.81 216.981 15.9342 216.79 15.3928C216.599 14.8514 216.233 14.4852 215.691 14.2941C215.182 14.1031 214.354 13.9757 213.207 13.912V12.9566C214.545 13.0521 216.487 13.0999 219.035 13.0999L223.908 13.0521C224.449 13.0203 225.07 13.0044 225.771 13.0044C229.337 13.0044 232.06 13.6731 233.939 15.0107C235.85 16.3482 236.805 18.0838 236.805 20.2175C236.805 22.0645 236.057 23.7523 234.56 25.2809C233.095 26.8095 230.675 27.7808 227.299 28.1948C227.936 28.2585 228.477 28.3222 228.923 28.3859C230.611 28.6407 231.949 29.1502 232.936 29.9145C233.923 30.6788 234.624 31.9049 235.038 33.5927L236.089 37.9397C236.343 39.0543 236.614 39.8504 236.901 40.3281C237.219 40.7739 237.617 40.9969 238.095 40.9969C238.891 40.9969 239.767 40.4555 240.722 39.3727L241.391 39.9937ZM224.576 13.912C223.716 13.912 223.064 14.0234 222.618 14.2464C222.204 14.4693 221.917 14.8674 221.758 15.4406C221.599 16.0138 221.519 16.8736 221.519 18.0201V27.6216H224.72C227.522 27.6216 229.433 27.0325 230.452 25.8542C231.503 24.644 232.028 22.9403 232.028 20.7429C232.028 18.45 231.439 16.7463 230.261 15.6317C229.114 14.4852 227.22 13.912 224.576 13.912ZM255.197 13.912C254.051 13.9757 253.207 14.1031 252.665 14.2941C252.156 14.4852 251.806 14.8514 251.615 15.3928C251.423 15.9342 251.328 16.81 251.328 18.0201V36.9365C251.328 38.1467 251.423 39.0224 251.615 39.5638C251.806 40.1052 252.156 40.4714 252.665 40.6625C253.207 40.8536 254.051 40.9809 255.197 41.0446V42C253.732 41.9045 251.71 41.8567 249.131 41.8567C246.392 41.8567 244.354 41.9045 243.016 42V41.0446C244.163 40.9809 244.991 40.8536 245.5 40.6625C246.042 40.4714 246.408 40.1052 246.599 39.5638C246.79 39.0224 246.885 38.1467 246.885 36.9365V18.0201C246.885 16.81 246.79 15.9342 246.599 15.3928C246.408 14.8514 246.042 14.4852 245.5 14.2941C244.991 14.1031 244.163 13.9757 243.016 13.912V12.9566C244.354 13.0521 246.392 13.0999 249.131 13.0999C251.678 13.0999 253.7 13.0521 255.197 12.9566V13.912ZM253.812 0.823352C254.321 0.504894 254.799 0.345665 255.245 0.345665C255.85 0.345665 256.344 0.616355 256.726 1.15773C256.917 1.44435 257.012 1.74688 257.012 2.06534C257.012 2.76595 256.582 3.38694 255.723 3.92832C255.054 4.34232 253.907 4.85185 252.283 5.45692C249.895 6.41229 247.841 7.3199 246.121 8.17974L245.787 7.55874C247.092 6.57152 248.207 5.66392 249.131 4.83593C250.086 3.97609 250.675 3.45063 250.898 3.25956C252.076 2.14495 253.048 1.33289 253.812 0.823352ZM288.247 13.912C287.132 13.9757 286.304 14.1508 285.763 14.4374C285.221 14.6922 284.855 15.1381 284.664 15.775C284.473 16.38 284.378 17.2876 284.378 18.4978V42.2388H283.279L264.171 15.775V36.4588C264.171 37.7008 264.267 38.6243 264.458 39.2294C264.681 39.8345 265.095 40.2803 265.7 40.5669C266.305 40.8217 267.245 40.9809 268.518 41.0446V42C267.372 41.9045 265.748 41.8567 263.646 41.8567C261.735 41.8567 260.254 41.9045 259.203 42V41.0446C260.318 40.9809 261.146 40.8217 261.687 40.5669C262.229 40.2803 262.595 39.8345 262.786 39.2294C262.977 38.5925 263.073 37.669 263.073 36.4588V18.0201C263.073 16.81 262.977 15.9342 262.786 15.3928C262.595 14.8514 262.229 14.4852 261.687 14.2941C261.178 14.1031 260.35 13.9757 259.203 13.912V12.9566C260.254 13.0521 261.735 13.0999 263.646 13.0999C265.366 13.0999 266.831 13.0521 268.041 12.9566L283.279 34.1659V18.4978C283.279 17.2558 283.167 16.3323 282.944 15.7272C282.753 15.1221 282.355 14.6922 281.75 14.4374C281.145 14.1508 280.206 13.9757 278.932 13.912V12.9566C280.078 13.0521 281.703 13.0999 283.804 13.0999C285.715 13.0999 287.196 13.0521 288.247 12.9566V13.912ZM319.755 7.51097C321.634 7.51097 323.178 7.78166 324.388 8.32304C325.598 8.83258 326.92 9.59688 328.353 10.6159C328.767 10.9344 329.086 11.0936 329.309 11.0936C329.914 11.0936 330.312 10.1223 330.503 8.17974H331.601C331.474 10.2497 331.41 13.912 331.41 19.1665H330.312C330.025 17.4787 329.723 16.0934 329.404 15.0107C329.086 13.8961 328.592 12.9248 327.923 12.0968C327 10.9503 325.79 10.0427 324.293 9.37396C322.828 8.70519 321.283 8.37081 319.659 8.37081C317.557 8.37081 315.71 9.0555 314.118 10.4249C312.526 11.7942 311.3 13.7528 310.44 16.3004C309.58 18.8162 309.15 21.762 309.15 25.1376C309.15 30.8699 310.058 35.0735 311.873 37.7486C313.72 40.3918 316.602 41.7134 320.519 41.7134C322.43 41.7134 324.086 41.2198 325.487 40.2326C326.06 39.8504 326.426 39.4842 326.586 39.1339C326.777 38.7517 326.872 38.2422 326.872 37.6053V33.0195C326.872 31.682 326.745 30.7107 326.49 30.1056C326.235 29.5005 325.79 29.0865 325.153 28.8636C324.516 28.6407 323.481 28.4974 322.048 28.4337V27.4783C323.704 27.5738 325.949 27.6216 328.783 27.6216C330.949 27.6216 332.605 27.5738 333.751 27.4783V28.4337C333.019 28.4974 332.477 28.6248 332.127 28.8158C331.808 29.0069 331.585 29.3731 331.458 29.9145C331.363 30.4559 331.315 31.3316 331.315 32.5418V42H330.359C330.328 41.3631 330.2 40.758 329.977 40.1848C329.754 39.5797 329.452 39.2772 329.07 39.2772C328.879 39.2772 328.688 39.325 328.496 39.4205C328.305 39.516 327.971 39.7389 327.493 40.0893C326.379 40.9491 325.216 41.586 324.006 42C322.828 42.4458 321.506 42.6688 320.041 42.6688C316.761 42.6688 313.943 42 311.586 40.6625C309.262 39.2931 307.478 37.3346 306.236 34.7869C304.994 32.2393 304.373 29.198 304.373 25.6631C304.373 22.0327 305.026 18.8481 306.332 16.1093C307.669 13.3388 309.5 11.221 311.825 9.75611C314.15 8.25935 316.793 7.51097 319.755 7.51097ZM360.89 36.3633C360.89 38.0193 361.001 39.8982 361.224 42C359.154 41.9045 355.667 41.8567 350.763 41.8567C344.871 41.8567 340.413 41.9045 337.387 42V41.0446C338.534 40.9809 339.362 40.8536 339.871 40.6625C340.413 40.4714 340.779 40.1052 340.97 39.5638C341.161 39.0224 341.257 38.1467 341.257 36.9365V18.0201C341.257 16.81 341.161 15.9342 340.97 15.3928C340.779 14.8514 340.413 14.4852 339.871 14.2941C339.362 14.1031 338.534 13.9757 337.387 13.912V12.9566C340.413 13.0521 344.871 13.0999 350.763 13.0999C355.221 13.0999 358.39 13.0521 360.269 12.9566C360.046 14.8674 359.934 16.587 359.934 18.1156C359.934 19.3576 359.982 20.3448 360.078 21.0773H358.979C358.756 18.4659 358.199 16.6507 357.307 15.6317C356.447 14.5807 355.03 14.0553 353.056 14.0553H349.568C348.422 14.0553 347.578 14.1508 347.037 14.3419C346.527 14.5011 346.177 14.8514 345.986 15.3928C345.795 15.9342 345.699 16.81 345.699 18.0201V26.9051H349.664C350.683 26.9051 351.463 26.6503 352.005 26.1408C352.546 25.5994 352.912 25.0262 353.103 24.4211C353.294 23.7842 353.47 22.988 353.629 22.0327H354.727C354.632 23.1154 354.584 24.2937 354.584 25.5676V27.3828C354.584 28.6248 354.68 30.4081 354.871 32.7329H353.772C353.581 31.2043 353.215 30.01 352.673 29.1502C352.132 28.2904 351.129 27.8605 349.664 27.8605H345.699V36.9365C345.699 38.1467 345.795 39.0224 345.986 39.5638C346.177 40.1052 346.527 40.4714 347.037 40.6625C347.578 40.8217 348.422 40.9013 349.568 40.9013H353.056C354.648 40.9013 355.906 40.6466 356.829 40.137C357.753 39.6275 358.453 38.8154 358.931 37.7008C359.409 36.5544 359.743 34.9621 359.934 32.9239H361.033C360.937 33.7838 360.89 34.9302 360.89 36.3633ZM376.019 12.2878C377.42 12.2878 378.519 12.4471 379.315 12.7655C380.143 13.0521 380.987 13.4821 381.847 14.0553C382.548 14.5011 383.089 14.7241 383.471 14.7241C383.758 14.7241 383.981 14.5648 384.14 14.2464C384.299 13.8961 384.427 13.3547 384.522 12.6222H385.621C385.462 14.2782 385.382 17.208 385.382 21.4117H384.283C384.092 19.1188 383.344 17.1762 382.038 15.5839C380.764 13.9916 378.901 13.1955 376.449 13.1955C374.761 13.1955 373.36 13.6413 372.246 14.533C371.163 15.4247 370.621 16.5552 370.621 17.9246C370.621 18.9118 370.86 19.7716 371.338 20.5041C371.847 21.2365 372.484 21.8734 373.249 22.4148C374.045 22.9244 375.159 23.5613 376.592 24.3256L378.169 25.1854C380.143 26.2363 381.72 27.1758 382.898 28.0038C384.108 28.8318 385.079 29.7871 385.812 30.8699C386.544 31.9208 386.911 33.1469 386.911 34.5481C386.911 37.1276 385.971 39.1339 384.092 40.5669C382.245 41.9682 379.92 42.6688 377.118 42.6688C375.589 42.6688 374.331 42.5095 373.344 42.1911C372.389 41.8726 371.465 41.4427 370.574 40.9013C369.873 40.4555 369.332 40.2326 368.949 40.2326C368.663 40.2326 368.44 40.4077 368.281 40.758C368.121 41.0765 367.994 41.6019 367.899 42.3344H366.8C366.927 40.7739 366.991 37.2709 366.991 31.8253H368.09C368.313 34.7869 369.109 37.1754 370.478 38.9906C371.847 40.8058 373.949 41.7134 376.784 41.7134C378.376 41.7134 379.745 41.2675 380.892 40.3759C382.07 39.4523 382.659 38.0989 382.659 36.3155C382.659 35.2646 382.357 34.3411 381.751 33.5449C381.146 32.7169 380.334 31.9845 379.315 31.3476C378.296 30.7107 376.879 29.9145 375.064 28.9591C372.452 27.6216 370.462 26.2841 369.093 24.9466C367.723 23.609 367.039 21.8734 367.039 19.7398C367.039 17.3832 367.899 15.552 369.618 14.2464C371.37 12.9407 373.503 12.2878 376.019 12.2878ZM417.872 12.9566C417.649 15.0584 417.538 16.9373 417.538 18.5933C417.538 20.2493 417.586 21.555 417.681 22.5104H416.582C416.391 20.2811 416.089 18.5774 415.675 17.3991C415.261 16.2208 414.592 15.3769 413.668 14.8674C412.745 14.326 411.423 14.0553 409.704 14.0553H406.646V36.4588C406.646 37.7964 406.774 38.7676 407.029 39.3727C407.283 39.9778 407.729 40.3918 408.366 40.6147C409.003 40.8376 410.038 40.9809 411.471 41.0446V42C409.815 41.9045 407.474 41.8567 404.449 41.8567C401.265 41.8567 398.908 41.9045 397.379 42V41.0446C398.812 40.9809 399.847 40.8376 400.484 40.6147C401.121 40.3918 401.567 39.9778 401.822 39.3727C402.077 38.7676 402.204 37.7964 402.204 36.4588V14.0553H399.147C397.427 14.0553 396.106 14.326 395.182 14.8674C394.258 15.3769 393.59 16.2208 393.176 17.3991C392.762 18.5774 392.459 20.2811 392.268 22.5104H391.169C391.265 21.4913 391.313 20.1856 391.313 18.5933C391.313 16.9373 391.201 15.0584 390.978 12.9566C393.622 13.0521 398.112 13.0999 404.449 13.0999C410.755 13.0999 415.229 13.0521 417.872 12.9566Z" fill="white"/>
</svg>
