<svg width="263" height="33" viewBox="0 0 263 33" fill="none" xmlns="http://www.w3.org/2000/svg">
<path d="M0.4 32.07C1.8 32.03 2.83 31.51 3.49 30.51C4.17 29.51 4.51 27.82 4.51 25.44V8.94C4.51 8.18 4.45 7.63 4.33 7.29C4.21 6.95 3.98 6.72 3.64 6.6C3.32 6.48 2.8 6.4 2.08 6.36V5.76C2.92 5.82 4.18 5.85 5.86 5.85C7.5 5.85 8.79 5.82 9.73 5.76V6.36C9.01 6.4 8.48 6.48 8.14 6.6C7.82 6.72 7.6 6.95 7.48 7.29C7.36 7.63 7.3 8.18 7.3 8.94V19.92C7.3 21.62 7.27 23.13 7.21 24.45C7.15 25.75 7.01 26.85 6.79 27.75C6.43 29.21 5.69 30.39 4.57 31.29C3.47 32.19 2.08 32.64 0.4 32.64V32.07ZM21.2929 8.34C23.1329 8.34 24.7429 8.71 26.1229 9.45C27.5229 10.17 28.6029 11.24 29.3629 12.66C30.1229 14.06 30.5029 15.74 30.5029 17.7C30.5029 19.62 30.1029 21.32 29.3029 22.8C28.5229 24.26 27.4329 25.4 26.0329 26.22C24.6329 27.02 23.0429 27.42 21.2629 27.42C19.4229 27.42 17.8029 27.06 16.4029 26.34C15.0229 25.6 13.9529 24.53 13.1929 23.13C12.4329 21.71 12.0529 20.02 12.0529 18.06C12.0529 16.14 12.4429 14.45 13.2229 12.99C14.0229 11.51 15.1229 10.37 16.5229 9.57C17.9229 8.75 19.5129 8.34 21.2929 8.34ZM21.1729 8.88C19.9529 8.88 18.8729 9.27 17.9329 10.05C17.0129 10.81 16.3029 11.88 15.8029 13.26C15.3029 14.62 15.0529 16.18 15.0529 17.94C15.0529 19.72 15.3329 21.29 15.8929 22.65C16.4529 24.01 17.2129 25.06 18.1729 25.8C19.1329 26.52 20.2029 26.88 21.3829 26.88C22.6029 26.88 23.6729 26.5 24.5929 25.74C25.5329 24.96 26.2529 23.89 26.7529 22.53C27.2529 21.15 27.5029 19.58 27.5029 17.82C27.5029 16.04 27.2229 14.47 26.6629 13.11C26.1029 11.75 25.3429 10.71 24.3829 9.99C23.4229 9.25 22.3529 8.88 21.1729 8.88ZM50.7803 25.74C50.4003 26.28 49.9603 26.7 49.4603 27C48.9803 27.28 48.4003 27.42 47.7203 27.42C46.0403 27.42 45.0103 26.66 44.6303 25.14L43.7003 21.39C43.4203 20.27 43.0003 19.52 42.4403 19.14C41.9003 18.76 41.0903 18.57 40.0103 18.57H38.3003V23.82C38.3003 24.58 38.3603 25.13 38.4803 25.47C38.6003 25.81 38.8203 26.04 39.1403 26.16C39.4803 26.28 40.0103 26.36 40.7303 26.4V27C39.8103 26.94 38.5403 26.91 36.9203 26.91C35.2003 26.91 33.9203 26.94 33.0803 27V26.4C33.8003 26.36 34.3203 26.28 34.6403 26.16C34.9803 26.04 35.2103 25.81 35.3303 25.47C35.4503 25.13 35.5103 24.58 35.5103 23.82V11.94C35.5103 11.18 35.4503 10.63 35.3303 10.29C35.2103 9.95 34.9803 9.72 34.6403 9.6C34.3203 9.48 33.8003 9.4 33.0803 9.36V8.76C33.9203 8.82 35.1403 8.85 36.7403 8.85L39.8003 8.82C40.1403 8.8 40.5303 8.79 40.9703 8.79C43.2103 8.79 44.9203 9.21 46.1003 10.05C47.3003 10.89 47.9003 11.98 47.9003 13.32C47.9003 14.48 47.4303 15.54 46.4903 16.5C45.5703 17.46 44.0503 18.07 41.9303 18.33C42.3303 18.37 42.6703 18.41 42.9503 18.45C44.0103 18.61 44.8503 18.93 45.4703 19.41C46.0903 19.89 46.5303 20.66 46.7903 21.72L47.4503 24.45C47.6103 25.15 47.7803 25.65 47.9603 25.95C48.1603 26.23 48.4103 26.37 48.7103 26.37C49.2103 26.37 49.7603 26.03 50.3603 25.35L50.7803 25.74ZM40.2203 9.36C39.6803 9.36 39.2703 9.43 38.9903 9.57C38.7303 9.71 38.5503 9.96 38.4503 10.32C38.3503 10.68 38.3003 11.22 38.3003 11.94V17.97H40.3103C42.0703 17.97 43.2703 17.6 43.9103 16.86C44.5703 16.1 44.9003 15.03 44.9003 13.65C44.9003 12.21 44.5303 11.14 43.7903 10.44C43.0703 9.72 41.8803 9.36 40.2203 9.36ZM59.991 8.76C63.111 8.76 65.451 9.52 67.011 11.04C68.591 12.54 69.381 14.74 69.381 17.64C69.381 19.52 69.001 21.17 68.241 22.59C67.481 23.99 66.371 25.08 64.911 25.86C63.471 26.62 61.741 27 59.721 27L57.981 26.97C56.861 26.93 56.041 26.91 55.521 26.91C53.881 26.91 52.641 26.94 51.801 27V26.4C52.521 26.36 53.041 26.28 53.361 26.16C53.701 26.04 53.931 25.81 54.051 25.47C54.171 25.13 54.231 24.58 54.231 23.82V11.94C54.231 11.18 54.171 10.63 54.051 10.29C53.931 9.95 53.701 9.72 53.361 9.6C53.041 9.48 52.521 9.4 51.801 9.36V8.76C52.501 8.82 53.471 8.85 54.711 8.85L57.261 8.82C58.621 8.78 59.531 8.76 59.991 8.76ZM59.241 9.3C58.621 9.3 58.151 9.37 57.831 9.51C57.531 9.65 57.321 9.9 57.201 10.26C57.081 10.62 57.021 11.16 57.021 11.88V23.88C57.021 24.6 57.081 25.14 57.201 25.5C57.321 25.86 57.531 26.11 57.831 26.25C58.151 26.39 58.631 26.46 59.271 26.46C61.091 26.46 62.521 26.14 63.561 25.5C64.601 24.84 65.331 23.88 65.751 22.62C66.171 21.36 66.381 19.74 66.381 17.76C66.381 14.84 65.841 12.7 64.761 11.34C63.681 9.98 61.841 9.3 59.241 9.3ZM79.6659 9.36C78.9459 9.4 78.4159 9.48 78.0759 9.6C77.7559 9.72 77.5359 9.95 77.4159 10.29C77.2959 10.63 77.2359 11.18 77.2359 11.94V23.82C77.2359 24.58 77.2959 25.13 77.4159 25.47C77.5359 25.81 77.7559 26.04 78.0759 26.16C78.4159 26.28 78.9459 26.36 79.6659 26.4V27C78.7459 26.94 77.4759 26.91 75.8559 26.91C74.1359 26.91 72.8559 26.94 72.0159 27V26.4C72.7359 26.36 73.2559 26.28 73.5759 26.16C73.9159 26.04 74.1459 25.81 74.2659 25.47C74.3859 25.13 74.4459 24.58 74.4459 23.82V11.94C74.4459 11.18 74.3859 10.63 74.2659 10.29C74.1459 9.95 73.9159 9.72 73.5759 9.6C73.2559 9.48 72.7359 9.4 72.0159 9.36V8.76C72.8559 8.82 74.1359 8.85 75.8559 8.85C77.4559 8.85 78.7259 8.82 79.6659 8.76V9.36ZM113.263 6.36C112.543 6.4 112.013 6.48 111.673 6.6C111.353 6.72 111.133 6.95 111.013 7.29C110.893 7.63 110.833 8.18 110.833 8.94V23.82C110.833 24.58 110.893 25.13 111.013 25.47C111.133 25.81 111.353 26.04 111.673 26.16C112.013 26.28 112.543 26.36 113.263 26.4V27C112.343 26.94 111.073 26.91 109.453 26.91C107.733 26.91 106.453 26.94 105.613 27V26.4C106.333 26.36 106.853 26.28 107.173 26.16C107.513 26.04 107.743 25.81 107.863 25.47C107.983 25.13 108.043 24.58 108.043 23.82V7.74L100.813 27.15H100.333L92.7726 7.68V23.52C92.7726 24.3 92.8326 24.88 92.9526 25.26C93.0926 25.64 93.3526 25.92 93.7326 26.1C94.1126 26.26 94.7026 26.36 95.5026 26.4V27C94.7826 26.94 93.7626 26.91 92.4426 26.91C91.2426 26.91 90.3126 26.94 89.6526 27V26.4C90.3526 26.36 90.8726 26.26 91.2126 26.1C91.5526 25.92 91.7826 25.64 91.9026 25.26C92.0226 24.86 92.0826 24.28 92.0826 23.52V8.94C92.0826 8.18 92.0226 7.63 91.9026 7.29C91.7826 6.95 91.5526 6.72 91.2126 6.6C90.8926 6.48 90.3726 6.4 89.6526 6.36V5.76C90.3126 5.82 91.2426 5.85 92.4426 5.85C93.4826 5.85 94.3326 5.82 94.9926 5.76L101.593 23.13L108.043 5.85H109.453C111.073 5.85 112.343 5.82 113.263 5.76V6.36ZM131.025 24.48C131.565 25.72 132.255 26.36 133.095 26.4V27C132.295 26.94 131.225 26.91 129.885 26.91C128.165 26.91 126.885 26.94 126.045 27V26.4C126.785 26.36 127.325 26.26 127.665 26.1C128.025 25.94 128.205 25.67 128.205 25.29C128.205 24.97 128.065 24.5 127.785 23.88L126.255 20.46H118.965L117.945 22.71C117.605 23.49 117.435 24.13 117.435 24.63C117.435 25.15 117.615 25.56 117.975 25.86C118.355 26.14 118.955 26.32 119.775 26.4V27C119.175 26.94 118.265 26.91 117.045 26.91C115.825 26.91 114.955 26.94 114.435 27V26.4C114.975 26.26 115.435 25.96 115.815 25.5C116.195 25.02 116.555 24.39 116.895 23.61L123.525 8.61H124.005L131.025 24.48ZM126.015 19.86L122.625 12.24L119.205 19.86H126.015ZM151.972 25.74C151.592 26.28 151.152 26.7 150.652 27C150.172 27.28 149.592 27.42 148.912 27.42C147.232 27.42 146.202 26.66 145.822 25.14L144.892 21.39C144.612 20.27 144.192 19.52 143.632 19.14C143.092 18.76 142.282 18.57 141.202 18.57H139.492V23.82C139.492 24.58 139.552 25.13 139.672 25.47C139.792 25.81 140.012 26.04 140.332 26.16C140.672 26.28 141.202 26.36 141.922 26.4V27C141.002 26.94 139.732 26.91 138.112 26.91C136.392 26.91 135.112 26.94 134.272 27V26.4C134.992 26.36 135.512 26.28 135.832 26.16C136.172 26.04 136.402 25.81 136.522 25.47C136.642 25.13 136.702 24.58 136.702 23.82V11.94C136.702 11.18 136.642 10.63 136.522 10.29C136.402 9.95 136.172 9.72 135.832 9.6C135.512 9.48 134.992 9.4 134.272 9.36V8.76C135.112 8.82 136.332 8.85 137.932 8.85L140.992 8.82C141.332 8.8 141.722 8.79 142.162 8.79C144.402 8.79 146.112 9.21 147.292 10.05C148.492 10.89 149.092 11.98 149.092 13.32C149.092 14.48 148.622 15.54 147.682 16.5C146.762 17.46 145.242 18.07 143.122 18.33C143.522 18.37 143.862 18.41 144.142 18.45C145.202 18.61 146.042 18.93 146.662 19.41C147.282 19.89 147.722 20.66 147.982 21.72L148.642 24.45C148.802 25.15 148.972 25.65 149.152 25.95C149.352 26.23 149.602 26.37 149.902 26.37C150.402 26.37 150.952 26.03 151.552 25.35L151.972 25.74ZM141.412 9.36C140.872 9.36 140.462 9.43 140.182 9.57C139.922 9.71 139.742 9.96 139.642 10.32C139.542 10.68 139.492 11.22 139.492 11.94V17.97H141.502C143.262 17.97 144.462 17.6 145.102 16.86C145.762 16.1 146.092 15.03 146.092 13.65C146.092 12.21 145.722 11.14 144.982 10.44C144.262 9.72 143.072 9.36 141.412 9.36ZM160.642 9.36C159.922 9.4 159.392 9.48 159.052 9.6C158.732 9.72 158.512 9.95 158.392 10.29C158.272 10.63 158.212 11.18 158.212 11.94V23.82C158.212 24.58 158.272 25.13 158.392 25.47C158.512 25.81 158.732 26.04 159.052 26.16C159.392 26.28 159.922 26.36 160.642 26.4V27C159.722 26.94 158.452 26.91 156.832 26.91C155.112 26.91 153.832 26.94 152.992 27V26.4C153.712 26.36 154.232 26.28 154.552 26.16C154.892 26.04 155.122 25.81 155.242 25.47C155.362 25.13 155.422 24.58 155.422 23.82V11.94C155.422 11.18 155.362 10.63 155.242 10.29C155.122 9.95 154.892 9.72 154.552 9.6C154.232 9.48 153.712 9.4 152.992 9.36V8.76C153.832 8.82 155.112 8.85 156.832 8.85C158.432 8.85 159.702 8.82 160.642 8.76V9.36ZM159.772 1.14C160.092 0.939999 160.392 0.839999 160.672 0.839999C161.052 0.839999 161.362 1.01 161.602 1.35C161.722 1.53 161.782 1.72 161.782 1.92C161.782 2.36 161.512 2.75 160.972 3.09C160.552 3.35 159.832 3.67 158.812 4.05C157.312 4.65 156.022 5.22 154.942 5.76L154.732 5.37C155.552 4.75 156.252 4.18 156.832 3.66C157.432 3.12 157.802 2.79 157.942 2.67C158.682 1.97 159.292 1.46 159.772 1.14ZM181.398 9.36C180.698 9.4 180.178 9.51 179.838 9.69C179.498 9.85 179.268 10.13 179.148 10.53C179.028 10.91 178.968 11.48 178.968 12.24V27.15H178.278L166.278 10.53V23.52C166.278 24.3 166.338 24.88 166.458 25.26C166.598 25.64 166.858 25.92 167.238 26.1C167.618 26.26 168.208 26.36 169.008 26.4V27C168.288 26.94 167.268 26.91 165.948 26.91C164.748 26.91 163.818 26.94 163.158 27V26.4C163.858 26.36 164.378 26.26 164.718 26.1C165.058 25.92 165.288 25.64 165.408 25.26C165.528 24.86 165.588 24.28 165.588 23.52V11.94C165.588 11.18 165.528 10.63 165.408 10.29C165.288 9.95 165.058 9.72 164.718 9.6C164.398 9.48 163.878 9.4 163.158 9.36V8.76C163.818 8.82 164.748 8.85 165.948 8.85C167.028 8.85 167.948 8.82 168.708 8.76L178.278 22.08V12.24C178.278 11.46 178.208 10.88 178.068 10.5C177.948 10.12 177.698 9.85 177.318 9.69C176.938 9.51 176.348 9.4 175.548 9.36V8.76C176.268 8.82 177.288 8.85 178.608 8.85C179.808 8.85 180.738 8.82 181.398 8.76V9.36ZM201.186 5.34C202.366 5.34 203.336 5.51 204.096 5.85C204.856 6.17 205.686 6.65 206.586 7.29C206.846 7.49 207.046 7.59 207.186 7.59C207.566 7.59 207.816 6.98 207.936 5.76H208.626C208.546 7.06 208.506 9.36 208.506 12.66H207.816C207.636 11.6 207.446 10.73 207.246 10.05C207.046 9.35 206.736 8.74 206.316 8.22C205.736 7.5 204.976 6.93 204.036 6.51C203.116 6.09 202.146 5.88 201.126 5.88C199.806 5.88 198.646 6.31 197.646 7.17C196.646 8.03 195.876 9.26 195.336 10.86C194.796 12.44 194.526 14.29 194.526 16.41C194.526 20.01 195.096 22.65 196.236 24.33C197.396 25.99 199.206 26.82 201.666 26.82C202.866 26.82 203.906 26.51 204.786 25.89C205.146 25.65 205.376 25.42 205.476 25.2C205.596 24.96 205.656 24.64 205.656 24.24V21.36C205.656 20.52 205.576 19.91 205.416 19.53C205.256 19.15 204.976 18.89 204.576 18.75C204.176 18.61 203.526 18.52 202.626 18.48V17.88C203.666 17.94 205.076 17.97 206.856 17.97C208.216 17.97 209.256 17.94 209.976 17.88V18.48C209.516 18.52 209.176 18.6 208.956 18.72C208.756 18.84 208.616 19.07 208.536 19.41C208.476 19.75 208.446 20.3 208.446 21.06V27H207.846C207.826 26.6 207.746 26.22 207.606 25.86C207.466 25.48 207.276 25.29 207.036 25.29C206.916 25.29 206.796 25.32 206.676 25.38C206.556 25.44 206.346 25.58 206.046 25.8C205.346 26.34 204.616 26.74 203.856 27C203.116 27.28 202.286 27.42 201.366 27.42C199.306 27.42 197.536 27 196.056 26.16C194.596 25.3 193.476 24.07 192.696 22.47C191.916 20.87 191.526 18.96 191.526 16.74C191.526 14.46 191.936 12.46 192.756 10.74C193.596 9 194.746 7.67 196.206 6.75C197.666 5.81 199.326 5.34 201.186 5.34ZM227.02 23.46C227.02 24.5 227.09 25.68 227.23 27C225.93 26.94 223.74 26.91 220.66 26.91C216.96 26.91 214.16 26.94 212.26 27V26.4C212.98 26.36 213.5 26.28 213.82 26.16C214.16 26.04 214.39 25.81 214.51 25.47C214.63 25.13 214.69 24.58 214.69 23.82V11.94C214.69 11.18 214.63 10.63 214.51 10.29C214.39 9.95 214.16 9.72 213.82 9.6C213.5 9.48 212.98 9.4 212.26 9.36V8.76C214.16 8.82 216.96 8.85 220.66 8.85C223.46 8.85 225.45 8.82 226.63 8.76C226.49 9.96 226.42 11.04 226.42 12C226.42 12.78 226.45 13.4 226.51 13.86H225.82C225.68 12.22 225.33 11.08 224.77 10.44C224.23 9.78 223.34 9.45 222.1 9.45H219.91C219.19 9.45 218.66 9.51 218.32 9.63C218 9.73 217.78 9.95 217.66 10.29C217.54 10.63 217.48 11.18 217.48 11.94V17.52H219.97C220.61 17.52 221.1 17.36 221.44 17.04C221.78 16.7 222.01 16.34 222.13 15.96C222.25 15.56 222.36 15.06 222.46 14.46H223.15C223.09 15.14 223.06 15.88 223.06 16.68V17.82C223.06 18.6 223.12 19.72 223.24 21.18H222.55C222.43 20.22 222.2 19.47 221.86 18.93C221.52 18.39 220.89 18.12 219.97 18.12H217.48V23.82C217.48 24.58 217.54 25.13 217.66 25.47C217.78 25.81 218 26.04 218.32 26.16C218.66 26.26 219.19 26.31 219.91 26.31H222.1C223.1 26.31 223.89 26.15 224.47 25.83C225.05 25.51 225.49 25 225.79 24.3C226.09 23.58 226.3 22.58 226.42 21.3H227.11C227.05 21.84 227.02 22.56 227.02 23.46ZM236.522 8.34C237.402 8.34 238.092 8.44 238.592 8.64C239.112 8.82 239.642 9.09 240.182 9.45C240.622 9.73 240.962 9.87 241.202 9.87C241.382 9.87 241.522 9.77 241.622 9.57C241.722 9.35 241.802 9.01 241.862 8.55H242.552C242.452 9.59 242.402 11.43 242.402 14.07H241.712C241.592 12.63 241.122 11.41 240.302 10.41C239.502 9.41 238.332 8.91 236.792 8.91C235.732 8.91 234.852 9.19 234.152 9.75C233.472 10.31 233.132 11.02 233.132 11.88C233.132 12.5 233.282 13.04 233.582 13.5C233.902 13.96 234.302 14.36 234.782 14.7C235.282 15.02 235.982 15.42 236.882 15.9L237.872 16.44C239.112 17.1 240.102 17.69 240.842 18.21C241.602 18.73 242.212 19.33 242.672 20.01C243.132 20.67 243.362 21.44 243.362 22.32C243.362 23.94 242.772 25.2 241.592 26.1C240.432 26.98 238.972 27.42 237.212 27.42C236.252 27.42 235.462 27.32 234.842 27.12C234.242 26.92 233.662 26.65 233.102 26.31C232.662 26.03 232.322 25.89 232.082 25.89C231.902 25.89 231.762 26 231.662 26.22C231.562 26.42 231.482 26.75 231.422 27.21H230.732C230.812 26.23 230.852 24.03 230.852 20.61H231.542C231.682 22.47 232.182 23.97 233.042 25.11C233.902 26.25 235.222 26.82 237.002 26.82C238.002 26.82 238.862 26.54 239.582 25.98C240.322 25.4 240.692 24.55 240.692 23.43C240.692 22.77 240.502 22.19 240.122 21.69C239.742 21.17 239.232 20.71 238.592 20.31C237.952 19.91 237.062 19.41 235.922 18.81C234.282 17.97 233.032 17.13 232.172 16.29C231.312 15.45 230.882 14.36 230.882 13.02C230.882 11.54 231.422 10.39 232.502 9.57C233.602 8.75 234.942 8.34 236.522 8.34ZM262.806 8.76C262.666 10.08 262.596 11.26 262.596 12.3C262.596 13.34 262.626 14.16 262.686 14.76H261.996C261.876 13.36 261.686 12.29 261.426 11.55C261.166 10.81 260.746 10.28 260.166 9.96C259.586 9.62 258.756 9.45 257.676 9.45H255.756V23.52C255.756 24.36 255.836 24.97 255.996 25.35C256.156 25.73 256.436 25.99 256.836 26.13C257.236 26.27 257.886 26.36 258.786 26.4V27C257.746 26.94 256.276 26.91 254.376 26.91C252.376 26.91 250.896 26.94 249.936 27V26.4C250.836 26.36 251.486 26.27 251.886 26.13C252.286 25.99 252.566 25.73 252.726 25.35C252.886 24.97 252.966 24.36 252.966 23.52V9.45H251.046C249.966 9.45 249.136 9.62 248.556 9.96C247.976 10.28 247.556 10.81 247.296 11.55C247.036 12.29 246.846 13.36 246.726 14.76H246.036C246.096 14.12 246.126 13.3 246.126 12.3C246.126 11.26 246.056 10.08 245.916 8.76C247.576 8.82 250.396 8.85 254.376 8.85C258.336 8.85 261.146 8.82 262.806 8.76Z" fill="white"/>
</svg>
